{"title":"Spent 2017 1080p AMZN WEBRip AAC x264 - EiE","magnet":"magnet:?xt=urn:btih:c12438376d781ea23ca4eb65c7cf56699068f2b8&dn=Spent+2017+1080p+AMZN+WEBRip+AAC+x264+-+EiE&tr=udp%3A%2F%2Ftracker.leechers-paradise.org%3A6969&tr=udp%3A%2F%2Fzer0day.ch%3A1337&tr=udp%3A%2F%2Fopen.demonii.com%3A1337&tr=udp%3A%2F%2Ftracker.coppersurfer.tk%3A6969&tr=udp%3A%2F%2Fexodus.desync.com%3A6969","uploader":"samcode4u","categoryP":"video","categoryS":"hd___movies","size":"1610680798","seeders":"3","leechers":"201","description":"Spent 2017 1080p AMZN WEBRip AAC x264 - EiE\r\n <a href=\"\nhttps://www.imdb.com/title/tt6066280/\" rel=\"nofollow\" target=\"_NEW\">\nhttps://www.imdb.com/title/tt6066280/</a>\r\n\r\n\r\nScreenshots:\r\n <a href=\"\nhttps://lensdump.com/i/lktYM\" rel=\"nofollow\" target=\"_NEW\">\nhttps://lensdump.com/i/lktYM</a>\r\n <a href=\"\nhttps://lensdump.com/i/lkrBA\" rel=\"nofollow\" target=\"_NEW\">\nhttps://lensdump.com/i/lkrBA</a>\r\n <a href=\"\nhttps://lensdump.com/i/lkR2Q\" rel=\"nofollow\" target=\"_NEW\">\nhttps://lensdump.com/i/lkR2Q</a>\r\n <a href=\"\nhttps://lensdump.com/i/lkTCa\" rel=\"nofollow\" target=\"_NEW\">\nhttps://lensdump.com/i/lkTCa</a>\r\n\r\n\r\nVideo\r\nID                                       : 1\r\nFormat                                   : AVC\r\nFormat/Info                              : Advanced Video Codec\r\nFormat settings                          : CABAC / 4 Ref Frames\r\nFormat settings, CABAC                   : Yes\r\nFormat settings, RefFrames               : 4 frames\r\nCodec ID                                 : avc1\r\nCodec ID/Info                            : Advanced Video Coding\r\nDuration                                 : 1 h 40 min\r\nBit rate                                 : 2 042 kb/s\r\nMaximum bit rate                         : 12.6 Mb/s\r\nWidth                                    : 1 920 pixels\r\nHeight                                   : 1 080 pixels\r\nDisplay aspect ratio                     : 16:9\r\nFrame rate mode                          : Constant\r\nFrame rate                               : 23.976\r\nColor space                              : YUV\r\nChroma subsampling                       : 4:2:0\r\nBit depth                                : 8 bits\r\nScan type                                : Progressive\r\nBits/(Pixel*Frame)                       : 0.041\r\nStream size                              : 1.44 GiB (96%)\r\n\r\nAudio\r\nID                                       : 2\r\nFormat                                   : AAC\r\nFormat/Info                              : Advanced Audio Codec\r\nFormat profile                           : LC\r\nCodec ID                                 : mp4a-40-2\r\nDuration                                 : 1 h 40 min\r\nBit rate mode                            : Variable\r\nBit rate                                 : 87.0 kb/s\r\nMaximum bit rate                         : 131 kb/s\r\nChannel(s)                               : 2 channels\r\nChannel positions                        : Front: L R\r\nSampling rate                            : 48.0 kHz\r\nCompression mode                         : Lossy\r\nStream size                              : 62.7 MiB (4%)\r\nLanguage                                 : English","last_updated":"2018-01-01T12:02:15.416Z","parsed":{"xt":"urn:btih:c12438376d781ea23ca4eb65c7cf56699068f2b8","dn":"Spent 2017 1080p AMZN WEBRip AAC x264 - EiE","tr":["udp://exodus.desync.com:6969","udp://open.demonii.com:1337","udp://tracker.coppersurfer.tk:6969","udp://tracker.leechers-paradise.org:6969","udp://zer0day.ch:1337"],"infoHash":"c12438376d781ea23ca4eb65c7cf56699068f2b8","infoHashBuffer":{"type":"Buffer","data":[193,36,56,55,109,120,30,162,60,164,235,101,199,207,86,105,144,104,242,184]},"name":"Spent 2017 1080p AMZN WEBRip AAC x264 - EiE","announce":["udp://exodus.desync.com:6969","udp://open.demonii.com:1337","udp://tracker.coppersurfer.tk:6969","udp://tracker.leechers-paradise.org:6969","udp://zer0day.ch:1337"],"urlList":[]}}